<?xml version="1.0" standalone="no"?>
<!DOCTYPE svg PUBLIC "-//W3C//DTD SVG 20010904//EN"
 "http://www.w3.org/TR/2001/REC-SVG-20010904/DTD/svg10.dtd">
<svg version="1.0" xmlns="http://www.w3.org/2000/svg"
 width="700.000000pt" height="700.000000pt" viewBox="0 0 700.000000 700.000000"
 preserveAspectRatio="xMidYMid meet">
<metadata>
Created by potrace 1.14, written by Peter Selinger 2001-2017
</metadata>
<g transform="translate(0.000000,700.000000) scale(0.100000,-0.100000)"
fill="#000000" stroke="none">
<path d="M1175 6985 c-292 -47 -538 -170 -752 -378 -204 -198 -332 -428 -395
-708 l-23 -104 0 -2295 0 -2295 23 -104 c29 -129 61 -219 120 -336 38 -77 138
-235 148 -235 2 0 1107 1255 1182 1342 13 15 12 20 -7 44 -37 47 -29 67 76
175 l96 99 -31 33 c-50 51 -55 77 -37 176 40 217 109 440 202 650 l55 124 -20
26 c-43 59 -132 86 -199 60 -15 -6 -239 -83 -498 -170 -367 -125 -477 -159
-502 -154 -73 13 -127 100 -104 165 11 32 174 253 300 405 440 533 830 836
1199 932 126 32 289 36 406 9 65 -15 80 -16 90 -4 7 7 44 52 84 99 225 270
542 519 880 692 385 197 754 299 1189 329 186 13 408 3 587 -26 l89 -15 188
160 c103 87 194 159 203 159 23 0 36 -32 24 -55 -6 -10 -78 -103 -159 -207
l-148 -187 14 -108 c86 -672 -89 -1402 -479 -1992 -146 -221 -339 -439 -533
-603 l-81 -69 19 -44 c64 -145 77 -340 34 -510 -96 -381 -452 -802 -1155
-1365 -182 -146 -213 -164 -266 -154 -44 8 -99 61 -107 102 -8 40 -13 27 176
507 203 517 203 517 188 573 -12 45 -69 117 -100 127 -9 3 -59 -13 -111 -36
-194 -84 -442 -158 -645 -193 -143 -25 -158 -23 -214 29 l-47 44 -99 -99 c-67
-67 -107 -100 -122 -100 -12 0 -38 14 -57 30 l-34 31 -649 -577 c-356 -317
-661 -590 -678 -606 l-30 -29 35 -31 c155 -133 392 -246 620 -295 81 -17 200
-18 2370 -18 2189 0 2289 1 2369 19 501 109 886 452 1046 928 76 227 70 28 70
2548 0 2103 -1 2261 -17 2347 -73 381 -287 711 -599 919 -148 99 -289 160
-479 207 l-85 21 -2270 2 c-1808 2 -2286 0 -2350 -11z"/>
<path d="M4334 4791 c-49 -13 -134 -63 -161 -96 -108 -126 -102 -315 12 -430
90 -89 233 -116 346 -63 245 113 245 453 1 568 -48 23 -150 34 -198 21z"/>
<path d="M3465 3942 c-68 -22 -165 -118 -188 -186 -36 -105 -12 -231 58 -314
21 -24 63 -54 99 -72 54 -27 76 -32 136 -32 215 0 357 200 294 412 -22 75
-116 169 -193 193 -66 21 -140 21 -206 -1z"/>
<path d="M1249 1453 c-172 -197 -345 -394 -383 -438 -38 -44 117 105 344 332
l414 412 -24 26 c-13 14 -26 25 -30 25 -3 0 -148 -161 -321 -357z"/>
<path d="M1295 1278 c-220 -221 -359 -366 -310 -322 50 43 242 214 427 379
l337 299 -21 23 c-12 13 -24 23 -27 23 -3 0 -186 -181 -406 -402z"/>
</g>
</svg>
