<svg width="48" height="48" viewBox="0 0 48 48" fill="none" xmlns="http://www.w3.org/2000/svg">
<g clip-path="url(#clip0_29_157)">
<path d="M19.6693 25.3235C19.2107 25.1635 18.2293 25.0781 16.704 25.0781H14.624C14.56 25.0781 14.5173 25.1315 14.5173 25.1848V29.4621C14.5173 29.5261 14.56 29.5688 14.624 29.5688H17.0987C18.304 29.5688 19.0613 29.5368 19.392 29.4621C19.8933 29.3661 20.288 29.1421 20.608 28.7901C20.9173 28.4381 21.0773 27.9581 21.0773 27.3608C21.0773 26.8595 20.96 26.4328 20.7147 26.0808C20.4693 25.7395 20.128 25.4835 19.6693 25.3235Z" fill="#00FFCE"/>
<path d="M31.4667 21.9736C30.7307 21.9736 30.1227 22.2296 29.6427 22.7523C29.1841 23.2536 28.9814 23.7336 28.9387 24.427C28.9387 24.491 28.9921 24.555 29.0667 24.555H33.8561C33.9307 24.555 33.9841 24.491 33.9841 24.427C33.9841 23.7976 33.6854 23.179 33.2267 22.7096C32.7361 22.219 32.1601 21.9736 31.4667 21.9736Z" fill="#00FFCE"/>
<path d="M14.624 22.2831H16.192C17.4934 22.2831 18.304 22.2618 18.624 22.2298C19.2 22.1658 19.648 21.9631 19.968 21.6325C20.2987 21.3018 20.4587 20.8645 20.4587 20.3205C20.4587 19.7978 20.32 19.3818 20.032 19.0511C19.7547 18.7311 19.328 18.5285 18.7734 18.4645C18.4427 18.4218 17.4934 18.4111 15.9147 18.4111H14.6134C14.5494 18.4111 14.5067 18.4645 14.5067 18.5178V22.1871C14.5174 22.2298 14.5707 22.2831 14.624 22.2831Z" fill="#00FFCE"/>
<path d="M24 0C10.7413 0 0 10.7413 0 24C0 37.2587 10.7413 48 24 48C37.2587 48 48 37.2587 48 24C48 10.7413 37.2587 0 24 0ZM28.0427 16.608C28.0427 16.3413 28.2667 16.1173 28.5333 16.1173H34.208C34.4747 16.1173 34.6987 16.3413 34.6987 16.608V17.4293C34.6987 17.696 34.4747 17.92 34.208 17.92H28.5333C28.2667 17.92 28.0427 17.696 28.0427 17.4293V16.608ZM24 29.76C23.648 30.4853 23.168 31.0613 22.5707 31.488C21.9627 31.9253 21.216 32.1813 20.3307 32.288C19.776 32.352 18.432 32.384 16.8107 32.4053H11.2853C10.7093 32.4053 10.6667 32.352 10.6667 32.2987V15.7013C10.6667 15.6373 10.7093 15.5947 11.2853 15.5947H17.792C18.592 15.5947 19.5627 15.648 20.2133 15.7653C20.8533 15.872 21.4293 16.1067 21.9413 16.4587C22.4533 16.8107 22.8693 17.28 23.2107 17.8667C23.552 18.4533 23.7227 19.104 23.7227 19.8293C23.7227 20.6187 23.5093 21.344 23.0933 21.9947C22.72 22.5813 22.2293 23.0293 21.632 23.36C21.5467 23.4027 21.5573 23.5307 21.6427 23.552C22.528 23.8613 23.2213 24.3413 23.7227 24.992C24.2667 25.7067 24.5333 26.56 24.5333 27.5307C24.5227 28.2987 24.352 29.0347 24 29.76ZM37.3333 26.752C37.3333 26.816 37.28 26.88 37.2053 26.88H29.0027C28.928 26.88 28.8747 26.944 28.8747 27.008C28.9173 27.9147 29.184 28.48 29.6853 28.992C30.208 29.536 30.848 29.6853 31.6267 29.6853C32.3413 29.6853 33.44 29.472 33.76 28.2773C33.7707 28.224 33.8347 28.1813 33.8987 28.192L37.0133 28.224C37.088 28.2347 37.12 28.3093 37.1093 28.3947C37.0667 29.4507 36 30.8587 35.104 31.456C34.176 32.0853 33.0027 32.3947 31.6053 32.3947C29.3867 32.3947 27.744 31.6907 26.6773 30.2827C25.8347 29.152 25.4187 27.7333 25.4187 26.016C25.4187 23.968 25.9733 22.3573 27.072 21.1947C28.1813 20.032 29.5787 19.456 31.264 19.456C33.1627 19.456 34.656 20.064 35.7547 21.28C36.8213 22.4747 37.3653 23.4773 37.3333 26.752Z" fill="#00FFCE"/>
</g>
<defs>
<clipPath id="clip0_29_157">
<rect width="48" height="48" fill="white"/>
</clipPath>
</defs>
</svg>
