<svg width="48" height="48" viewBox="0 0 48 48" fill="none" xmlns="http://www.w3.org/2000/svg">
<g clip-path="url(#clip0_29_163)">
<path d="M36.0467 3.2198C32.3698 1.07378 28.354 0.000976562 24 0.000976562C19.6455 0.000976562 15.6297 1.07378 11.9528 3.2198C8.27594 5.36591 5.36443 8.27741 3.21882 11.9538C1.0728 15.6311 0 19.6469 0 24.001C0 28.8551 1.32236 33.2614 3.96856 37.2192C6.61427 41.1783 10.0827 44.1049 14.3749 46.0003C14.2911 43.7712 14.4267 41.9278 14.7811 40.4696L17.8747 27.407C17.3538 26.3864 17.0936 25.1158 17.0936 23.5946C17.0936 21.8239 17.5415 20.3443 18.4372 19.1574C19.3325 17.9694 20.4266 17.3754 21.7185 17.3754C22.7598 17.3754 23.5622 17.7188 24.1248 18.4071C24.6873 19.0944 24.9689 19.9592 24.9689 21.0006C24.9689 21.6468 24.8486 22.4335 24.6097 23.3602C24.3697 24.2874 24.0573 25.3601 23.6723 26.5791C23.2868 27.7975 23.0109 28.7713 22.844 29.5008C22.5518 30.7713 22.7918 31.8598 23.5627 32.7662C24.3331 33.6726 25.3543 34.1255 26.6253 34.1255C28.8546 34.1255 30.6827 32.8863 32.11 30.407C33.537 27.9278 34.2505 24.9174 34.2505 21.3753C34.2505 18.6465 33.3705 16.4273 31.61 14.719C29.8494 13.0112 27.3959 12.1565 24.2506 12.1565C20.7294 12.1565 17.8803 13.2872 15.7038 15.5468C13.5267 17.8076 12.4382 20.5111 12.4382 23.6559C12.4382 25.531 12.9698 27.1044 14.0319 28.3752C14.386 28.792 14.5006 29.2394 14.3758 29.7182C14.3337 29.8435 14.2505 30.1559 14.1257 30.6555C14.001 31.1552 13.9173 31.4789 13.8757 31.6243C13.7087 32.2914 13.3132 32.4999 12.6877 32.2493C11.0834 31.5827 9.8645 30.4268 9.03164 28.7808C8.19828 27.1353 7.7818 25.2292 7.7818 23.0624C7.7818 21.6665 8.0055 20.2705 8.45338 18.8747C8.90127 17.4788 9.59871 16.1301 10.5473 14.8274C11.4948 13.5264 12.6305 12.3745 13.9538 11.3747C15.2767 10.3744 16.8861 9.57308 18.7821 8.96789C20.6777 8.36427 22.7197 8.062 24.9073 8.062C27.8655 8.062 30.5219 8.71833 32.8759 10.0305C35.2299 11.3432 37.0271 13.0415 38.2667 15.1246C39.5058 17.2078 40.1262 19.4365 40.1262 21.8124C40.1262 24.9374 39.5841 27.75 38.5012 30.2502C37.4177 32.7503 35.8864 34.7137 33.9071 36.1406C31.9273 37.5674 29.6773 38.2811 27.1569 38.2811C25.8859 38.2811 24.6983 37.9844 23.5942 37.3903C22.4894 36.7964 21.7292 36.0934 21.3127 35.2807C20.3753 38.9678 19.8128 41.1667 19.6252 41.8743C19.229 43.3539 18.4164 45.0616 17.1874 46.9993C19.4166 47.6659 21.6875 47.999 24 47.999C28.354 47.999 32.3698 46.9263 36.0467 44.7807C39.7235 42.6346 42.635 39.7231 44.7812 36.0457C46.9267 32.3687 48.0001 28.3535 48.0001 23.9989C48.0001 19.6444 46.9267 15.6292 44.7812 11.9518C42.6355 8.27741 39.7235 5.36591 36.0467 3.2198Z" fill="#00FFCE"/>
</g>
<defs>
<clipPath id="clip0_29_163">
<rect width="48" height="48" fill="white"/>
</clipPath>
</defs>
</svg>
