<svg width="48" height="48" viewBox="0 0 48 48" fill="none" xmlns="http://www.w3.org/2000/svg">
<g clip-path="url(#clip0_84_32)">
<path fill-rule="evenodd" clip-rule="evenodd" d="M48 24C48 37.2548 37.2548 48 24 48C10.7452 48 0 37.2548 0 24C0 10.7452 10.7452 0 24 0C37.2548 0 48 10.7452 48 24ZM25.2319 9.05743C28.7688 9.34976 32.0848 10.8964 34.5818 13.4183C37.0581 15.9238 38.5651 19.2266 38.8348 22.739C39.1044 26.2514 38.1192 29.7455 36.0544 32.5996C33.9897 35.4538 30.9793 37.4828 27.5589 38.3258C24.1385 39.1687 20.53 38.7708 17.3755 37.2028L9.86183 38.9837C9.74795 39.011 9.62846 39.003 9.5193 38.9606C9.41014 38.9182 9.31651 38.8435 9.25092 38.7465C9.20615 38.6825 9.17504 38.6101 9.15956 38.5336C9.14407 38.4571 9.14454 38.3782 9.16092 38.3019L10.74 30.6356C9.13136 27.4721 8.70611 23.838 9.54095 20.3886C10.3758 16.9393 12.4158 13.9018 15.2929 11.824C18.1701 9.7463 21.695 8.76511 25.2319 9.05743ZM25.8785 35.368C28.2867 34.9765 30.5114 33.8393 32.2391 32.1165C34.4133 29.942 35.6398 26.9961 35.651 23.9211C35.6623 20.8461 34.4574 17.8913 32.2991 15.701C32.2778 15.6824 32.2577 15.6624 32.2391 15.641C30.0537 13.4563 27.0901 12.229 24 12.229C20.9099 12.229 17.9463 13.4563 15.7609 15.641C14.0217 17.3804 12.8776 19.6257 12.4925 22.0551C12.1075 24.4846 12.5012 26.9736 13.6173 29.1656L14.13 30.1774L13.1755 34.8137L13.1618 34.871L17.7682 33.7801L18.8155 34.2983C20.9998 35.3852 23.4702 35.7594 25.8785 35.368ZM29.2527 30.9628C30.3736 30.6928 31.2655 29.6046 31.83 28.7156C31.9167 28.5736 31.9699 28.4137 31.9854 28.2481C32.0008 28.0825 31.9782 27.9156 31.9193 27.76C31.8603 27.6045 31.7666 27.4645 31.6452 27.3508C31.5239 27.237 31.3781 27.1525 31.2191 27.1037L28.3364 26.2856C28.1508 26.2329 27.9546 26.2304 27.7677 26.2783C27.5809 26.3263 27.4101 26.4228 27.2727 26.5583L26.5609 27.2756C26.4162 27.4251 26.23 27.5279 26.0263 27.5707C25.8227 27.6135 25.6109 27.5943 25.4182 27.5156C24.6982 27.2265 23.5609 26.3783 22.5355 25.451C21.6218 24.6301 20.7982 23.7437 20.4546 23.141C20.3511 22.9575 20.3049 22.7473 20.3219 22.5373C20.3389 22.3273 20.4183 22.1273 20.55 21.9628L21.1636 21.1665C21.2829 21.0139 21.3583 20.8317 21.3818 20.6395C21.4054 20.4474 21.3761 20.2524 21.2973 20.0756L20.0836 17.3483C20.0164 17.1952 19.9144 17.0599 19.7855 16.9533C19.6567 16.8466 19.5047 16.7717 19.3417 16.7343C19.1787 16.6969 19.0092 16.6982 18.8468 16.738C18.6844 16.7779 18.5336 16.8552 18.4064 16.9637C17.6018 17.6401 16.6473 18.6765 16.5327 19.8219C16.3255 21.8401 17.1818 24.3846 20.4791 27.4419L20.5255 27.4828C24.2755 30.9792 27.2891 31.4374 29.2527 30.9628Z" fill="#00FFCE"/>
</g>
<defs>
<clipPath id="clip0_84_32">
<rect width="48" height="48" fill="white"/>
</clipPath>
</defs>
</svg>
