<svg width="48" height="48" viewBox="0 0 48 48" fill="none" xmlns="http://www.w3.org/2000/svg">
<g clip-path="url(#clip0_29_186)">
<path fill-rule="evenodd" clip-rule="evenodd" d="M23.9233 0.727539C28.2502 0.776914 32.1591 1.84033 35.6501 3.91779C39.0994 5.95377 41.9687 8.84062 43.9836 12.3023C46.0484 15.8142 47.1054 19.7468 47.1546 24.1C47.032 30.0563 45.1534 35.1435 41.5187 39.3617C37.884 43.5799 33.2288 46.1895 28.4099 47.1899V30.4905H32.9658L33.9961 23.928H27.0974V19.6297C27.0591 18.7386 27.3409 17.8633 27.8918 17.1619C28.4435 16.4586 29.4151 16.089 30.8064 16.053H34.9724V10.3044C34.9126 10.2851 34.3454 10.2091 33.2708 10.0762C32.0521 9.93361 30.8265 9.85745 29.5996 9.84805C26.8225 9.86087 24.6262 10.6442 23.0107 12.1981C21.3952 13.7516 20.5699 15.9991 20.5349 18.9407V23.928H15.2849V30.4905H20.5349V47.1899C14.6179 46.1895 9.96272 43.5799 6.32803 39.3617C2.69334 35.1435 0.814782 30.0563 0.692139 24.1C0.741207 19.7466 1.79819 15.814 3.8631 12.3023C5.87805 8.84062 8.74737 5.95377 12.1967 3.91779C15.6875 1.84073 19.5964 0.777314 23.9233 0.727539Z" fill="#00FFCE"/>
</g>
<defs>
<clipPath id="clip0_29_186">
<rect width="48" height="48" fill="white"/>
</clipPath>
</defs>
</svg>
