<svg width="415" height="119" viewBox="0 0 415 119" fill="none" xmlns="http://www.w3.org/2000/svg">
<g clip-path="url(#clip0_28_117)">
<path d="M118.581 23.6126V95.3874C118.581 108.426 108.044 119 95.0511 119H23.5294C17.5292 119 12.0593 116.749 7.90355 113.038C6.86576 112.115 5.90501 111.096 5.04395 109.995C1.88525 105.975 0 100.899 0 95.3874V23.6126C0 10.5738 10.5366 0 23.5294 0H95.0511C108.044 0 118.581 10.5738 118.581 23.6126Z" fill="#00CBA4"/>
<path d="M97.6886 19.8966C97.4983 19.692 97.1448 19.642 96.9046 19.7966C95.8442 20.6971 91.6295 24.2717 90.6461 25.1131C72.5776 21.6385 53.0317 29.5472 42.391 43.7367C32.1988 40.3758 20.9825 49.1395 9.14074 65.3164L9.12715 65.33C7.541 67.0173 9.26763 69.7733 11.4837 69.0593C11.5426 69.0411 11.597 69.0229 11.6514 69.0002C12.9883 68.5454 27.1821 63.7337 28.0748 63.429H28.0794C29.3483 63.3062 30.5583 64.0111 31.1248 65.0708C28.8951 69.5596 27.3679 74.2712 26.5567 79.2647C26.457 79.8787 26.6654 80.5018 27.105 80.9429L27.9615 81.8025C27.1277 82.6393 25.9313 83.8445 24.9343 84.845C24.4992 85.2816 24.4992 85.982 24.9343 86.4186C25.0838 86.5687 25.2379 86.7233 25.3874 86.8734L5.04395 109.995C5.905 111.095 6.86575 112.114 7.90355 113.037L30.9888 92.4946C31.229 92.7356 31.4692 92.9766 31.7048 93.2131C32.1354 93.6452 32.8378 93.6452 33.2683 93.2086C34.2653 92.208 35.421 91.0438 36.2956 90.166L37.2654 91.1393C37.696 91.5713 38.2987 91.7805 38.8969 91.6987C43.61 91.0347 48.0648 89.7431 52.3429 87.8193C52.6511 87.6874 52.9547 87.5464 53.2583 87.3964C54.6496 87.8875 55.5786 89.4338 55.275 90.9483L54.6088 92.8265L49.2341 106.516C48.1147 108.853 51.151 110.959 52.932 109.09C68.3947 97.1789 79.7198 85.4453 74.1592 74.4622C87.8409 63.9111 95.4771 44.9828 92.5268 27.3597C93.4649 26.1682 96.814 21.9204 97.8019 20.6607C97.9424 20.4242 97.8835 20.0786 97.6886 19.8966ZM26.6745 88.165L27.5718 89.0654L13.0835 103.605L26.6745 88.165ZM14.6787 104.574L28.8543 90.3525L29.7063 91.2075L14.6787 104.574ZM60.6906 62.2829C57.7766 62.2829 55.411 59.9135 55.411 56.9892C55.411 54.0649 57.7766 51.6909 60.6906 51.6909C63.6046 51.6909 65.9657 54.0649 65.9657 56.9892C65.9657 59.9135 63.6 62.2829 60.6906 62.2829ZM74.8843 48.039C71.9704 48.039 69.6047 45.665 69.6047 42.7452C69.6047 39.8255 71.9704 37.4469 74.8843 37.4469C77.7983 37.4469 80.1594 39.8209 80.1594 42.7452C80.1594 45.6695 77.7983 48.039 74.8843 48.039Z" fill="white"/>
<path d="M191.004 21.0477V57.4672C191.004 93.1317 137.365 92.3768 137.365 57.4672V21.0477H151.047V57.4672C151.047 74.3762 177.159 73.9578 177.159 57.4672V21.0477H191.009H191.004Z" fill="white"/>
<path d="M199.266 83.9177V21.1296H222.292C253.24 21.1296 253.24 68.9324 222.292 68.9324H213.45V83.9177H199.266ZM213.446 34.5231V55.6207H222.287C234.8 55.6207 234.8 34.5231 222.287 34.5231H213.446Z" fill="white"/>
<path d="M255.574 21.0477H292.613L292.78 30.8438L284.102 43.1504C291.444 47.339 296.284 54.7021 295.948 63.0747C295.196 77.9781 279.597 86.8511 265.997 83.5857C260.242 82.0803 254.817 78.6467 251.817 73.2893L263.328 65.9217C267.416 72.4525 280.263 72.2842 281.763 64.2481C283.35 55.7936 273.923 52.1098 267.08 55.125L266.745 55.4616L262.906 50.6044L276.67 34.9506H255.565V21.0522L255.574 21.0477Z" fill="white"/>
<path d="M328.405 83.8358H304.545V21.1296L328.405 21.2114C365.947 21.2114 365.947 83.8313 328.405 83.8313V83.8358ZM328.405 34.946H318.73V70.1057H328.405C347.344 70.1057 347.593 35.0279 328.405 34.946Z" fill="white"/>
<path d="M371.286 13.2617L365.281 29.4204H357.772L358.189 13.2617H371.286Z" fill="white"/>
<path d="M367.696 66.4856L380.875 65.3987C381.21 70.8425 388.298 72.7663 394.221 71.9295C403.149 70.8425 405.569 60.8781 394.389 59.2863C389.467 58.4495 384.378 58.4495 379.874 57.026C371.698 54.7657 366.858 48.235 366.858 40.1989C366.858 14.999 412.408 14.4987 414.243 38.6071L400.978 39.8623C400.729 35.3417 395.721 32.9995 390.632 32.9995C379.284 32.9177 374.784 44.8059 389.132 46.2248C391.217 46.3931 393.22 46.3931 395.055 46.5613C406.403 47.903 414.995 53.9289 414.995 65.0621C414.995 90.0937 369.446 90.6804 367.696 66.4856Z" fill="white"/>
<path d="M161.706 97.0297C161.792 97.0888 161.846 97.1616 161.86 97.2571C161.873 97.348 161.851 97.439 161.783 97.5254C161.733 97.5982 161.669 97.6391 161.592 97.6391C161.515 97.6391 161.438 97.6255 161.357 97.5891C161.085 97.4072 160.79 97.2616 160.468 97.1616C160.147 97.057 159.807 97.0069 159.449 97.0069C159.005 97.0069 158.588 97.0888 158.207 97.248C157.826 97.4072 157.491 97.6346 157.205 97.9302C156.92 98.2258 156.698 98.5714 156.544 98.9762C156.385 99.3809 156.308 99.8221 156.308 100.309C156.308 100.795 156.39 101.259 156.548 101.669C156.707 102.078 156.934 102.428 157.224 102.719C157.514 103.01 157.844 103.238 158.225 103.388C158.606 103.542 159.014 103.62 159.453 103.62C159.811 103.62 160.151 103.57 160.468 103.465C160.786 103.36 161.085 103.224 161.361 103.047C161.434 103.001 161.511 102.987 161.592 102.997C161.674 103.006 161.742 103.051 161.801 103.124C161.86 103.206 161.882 103.292 161.869 103.388C161.855 103.483 161.805 103.551 161.728 103.597C161.547 103.715 161.329 103.824 161.08 103.933C160.831 104.038 160.568 104.124 160.292 104.179C160.015 104.238 159.734 104.265 159.458 104.265C158.932 104.265 158.438 104.17 157.971 103.979C157.505 103.788 157.097 103.52 156.743 103.169C156.39 102.819 156.109 102.405 155.905 101.923C155.701 101.441 155.597 100.9 155.597 100.309C155.597 99.7175 155.696 99.2127 155.9 98.7351C156.1 98.2576 156.376 97.8438 156.73 97.489C157.079 97.1343 157.491 96.8569 157.958 96.6568C158.424 96.4612 158.928 96.3611 159.458 96.3611C159.875 96.3611 160.273 96.4203 160.663 96.5385C161.053 96.6568 161.402 96.8205 161.715 97.0342L161.706 97.0297Z" fill="white"/>
<path d="M164.642 104.156C164.533 104.156 164.443 104.124 164.375 104.056C164.307 103.992 164.271 103.915 164.271 103.824V96.7886C164.271 96.7022 164.302 96.6249 164.366 96.5567C164.429 96.4885 164.506 96.4566 164.601 96.4566H167.561C167.978 96.4566 168.349 96.5476 168.68 96.725C169.011 96.9069 169.265 97.1525 169.45 97.4663C169.636 97.7801 169.731 98.1394 169.731 98.5441C169.731 98.867 169.673 99.1626 169.555 99.431C169.437 99.6993 169.274 99.9267 169.061 100.113C168.848 100.3 168.612 100.441 168.349 100.536L167.964 100.404C168.236 100.432 168.485 100.522 168.721 100.673C168.957 100.823 169.142 101.027 169.287 101.287C169.428 101.546 169.505 101.855 169.514 102.214C169.523 102.528 169.537 102.774 169.564 102.951C169.591 103.128 169.627 103.26 169.677 103.347C169.727 103.433 169.795 103.506 169.876 103.556C169.949 103.601 169.999 103.661 170.026 103.742C170.053 103.824 170.044 103.902 169.999 103.974C169.972 104.033 169.926 104.074 169.867 104.102C169.809 104.129 169.75 104.138 169.691 104.138C169.632 104.138 169.577 104.124 169.528 104.093C169.419 104.033 169.31 103.942 169.21 103.82C169.106 103.697 169.02 103.51 168.952 103.269C168.884 103.028 168.848 102.692 168.848 102.26C168.848 101.973 168.802 101.741 168.712 101.559C168.621 101.377 168.503 101.236 168.363 101.136C168.222 101.032 168.064 100.964 167.892 100.927C167.719 100.891 167.556 100.873 167.402 100.873H164.851L164.973 100.709V103.82C164.973 103.906 164.946 103.983 164.887 104.052C164.828 104.12 164.751 104.152 164.656 104.152L164.642 104.156ZM164.842 100.263H167.592C167.842 100.24 168.073 100.159 168.29 100.022C168.508 99.8812 168.685 99.6856 168.821 99.4355C168.961 99.1808 169.029 98.8898 169.029 98.5623C169.029 98.1439 168.889 97.7983 168.608 97.5254C168.327 97.2525 167.96 97.1115 167.506 97.1115H164.887L164.964 96.9706V100.422L164.842 100.268V100.263Z" fill="white"/>
<path d="M173.312 103.815C173.303 103.911 173.266 103.992 173.198 104.056C173.13 104.124 173.049 104.156 172.963 104.156C172.854 104.156 172.768 104.124 172.709 104.056C172.65 103.992 172.623 103.911 172.623 103.815V96.7977C172.623 96.7022 172.655 96.6204 172.722 96.5567C172.79 96.4885 172.872 96.4566 172.976 96.4566C173.062 96.4566 173.144 96.4885 173.212 96.5567C173.28 96.6204 173.316 96.7022 173.316 96.7977V103.815H173.312Z" fill="white"/>
<path d="M178.931 97.3162L176.266 103.947C176.239 104.02 176.198 104.074 176.144 104.111C176.094 104.147 176.035 104.165 175.967 104.165C175.859 104.165 175.777 104.138 175.727 104.083C175.677 104.029 175.65 103.961 175.65 103.879C175.641 103.842 175.65 103.797 175.659 103.747L178.55 96.6431C178.578 96.5613 178.623 96.5067 178.677 96.4703C178.732 96.4385 178.795 96.4203 178.868 96.4203C178.949 96.4203 179.017 96.4385 179.072 96.4794C179.126 96.5203 179.167 96.5749 179.199 96.6386L182.081 103.711C182.094 103.756 182.103 103.797 182.103 103.842C182.103 103.947 182.072 104.024 182.004 104.079C181.936 104.133 181.863 104.161 181.773 104.161C181.7 104.161 181.637 104.143 181.582 104.102C181.528 104.061 181.487 104.006 181.455 103.942L178.727 97.2571L178.927 97.3117L178.931 97.3162ZM176.905 101.932L177.177 101.282H180.572L180.703 101.932H176.901H176.905Z" fill="white"/>
<path d="M190.052 97.0297C190.138 97.0888 190.193 97.1616 190.206 97.2571C190.22 97.348 190.197 97.439 190.129 97.5254C190.08 97.5982 190.016 97.6391 189.939 97.6391C189.862 97.6391 189.785 97.6255 189.703 97.5891C189.431 97.4072 189.137 97.2616 188.815 97.1616C188.493 97.057 188.153 97.0069 187.795 97.0069C187.351 97.0069 186.934 97.0888 186.554 97.248C186.173 97.4072 185.838 97.6346 185.552 97.9302C185.267 98.2258 185.045 98.5714 184.891 98.9762C184.732 99.3809 184.655 99.8221 184.655 100.309C184.655 100.795 184.736 101.259 184.895 101.669C185.054 102.078 185.28 102.428 185.57 102.719C185.86 103.01 186.191 103.238 186.572 103.388C186.953 103.542 187.36 103.62 187.8 103.62C188.158 103.62 188.498 103.57 188.815 103.465C189.132 103.36 189.431 103.224 189.708 103.047C189.78 103.001 189.857 102.987 189.939 102.997C190.021 103.006 190.089 103.051 190.147 103.124C190.206 103.206 190.229 103.292 190.215 103.388C190.202 103.483 190.152 103.551 190.075 103.597C189.894 103.715 189.676 103.824 189.427 103.933C189.178 104.038 188.915 104.124 188.638 104.179C188.362 104.238 188.081 104.265 187.805 104.265C187.279 104.265 186.785 104.17 186.318 103.979C185.851 103.788 185.443 103.52 185.09 103.169C184.736 102.819 184.455 102.405 184.252 101.923C184.048 101.441 183.943 100.9 183.943 100.309C183.943 99.7175 184.043 99.2127 184.247 98.7351C184.446 98.2576 184.723 97.8438 185.076 97.489C185.425 97.1343 185.838 96.8569 186.304 96.6568C186.771 96.4612 187.274 96.3611 187.805 96.3611C188.221 96.3611 188.62 96.4203 189.01 96.5385C189.4 96.6568 189.749 96.8205 190.061 97.0342L190.052 97.0297ZM187.125 105.739C187.079 105.739 187.02 105.725 186.948 105.693C186.875 105.666 186.807 105.621 186.749 105.562C186.69 105.502 186.662 105.443 186.662 105.384C186.662 105.302 186.69 105.239 186.74 105.184L187.691 103.988H188.108L187.406 105.516C187.347 105.662 187.252 105.734 187.12 105.734L187.125 105.739Z" fill="white"/>
<path d="M195.182 97.3162L192.518 103.947C192.49 104.02 192.45 104.074 192.395 104.111C192.345 104.147 192.287 104.165 192.219 104.165C192.11 104.165 192.028 104.138 191.978 104.083C191.928 104.029 191.901 103.961 191.901 103.879C191.892 103.842 191.901 103.797 191.91 103.747L194.802 96.6431C194.829 96.5613 194.874 96.5067 194.929 96.4703C194.983 96.4385 195.046 96.4203 195.119 96.4203C195.2 96.4203 195.268 96.4385 195.323 96.4794C195.377 96.5203 195.418 96.5749 195.45 96.6386L198.332 103.711C198.346 103.756 198.355 103.797 198.355 103.842C198.355 103.947 198.323 104.024 198.255 104.079C198.187 104.133 198.114 104.161 198.024 104.161C197.951 104.161 197.888 104.143 197.833 104.102C197.779 104.061 197.738 104.006 197.707 103.942L194.978 97.2571L195.178 97.3117L195.182 97.3162ZM193.157 101.932L193.429 101.282H196.823L196.954 101.932H193.152H193.157ZM193.728 95.6881C193.632 95.6881 193.56 95.6426 193.515 95.5562C193.469 95.4698 193.456 95.3515 193.478 95.206C193.528 94.9649 193.646 94.7785 193.823 94.6511C194 94.5238 194.203 94.4601 194.43 94.4601C194.611 94.4601 194.797 94.5147 194.978 94.6193C195.16 94.7239 195.336 94.8331 195.509 94.9377C195.681 95.0423 195.826 95.0968 195.953 95.0968C196.057 95.0968 196.139 95.0605 196.197 94.9831C196.261 94.9058 196.297 94.8012 196.311 94.6693C196.302 94.5829 196.324 94.5102 196.37 94.4601C196.415 94.4101 196.478 94.3828 196.551 94.3828C196.66 94.3828 196.737 94.4283 196.782 94.5147C196.827 94.6011 196.836 94.7148 196.814 94.8558C196.791 95.015 196.737 95.1605 196.655 95.2787C196.569 95.4015 196.469 95.4879 196.347 95.5471C196.225 95.6062 196.084 95.6335 195.926 95.6335C195.749 95.6335 195.568 95.5835 195.382 95.4789C195.196 95.3743 195.015 95.2742 194.838 95.1696C194.661 95.065 194.512 95.015 194.389 95.015C194.285 95.015 194.199 95.0468 194.126 95.115C194.054 95.1832 194 95.2878 193.963 95.4334C193.972 95.5152 193.945 95.5744 193.891 95.6198C193.836 95.6653 193.777 95.6881 193.719 95.6881H193.728Z" fill="white"/>
<path d="M207.541 100.309C207.541 100.886 207.45 101.418 207.273 101.896C207.092 102.378 206.838 102.792 206.512 103.151C206.181 103.506 205.796 103.783 205.347 103.974C204.899 104.17 204.405 104.265 203.874 104.265C203.344 104.265 202.841 104.17 202.397 103.974C201.953 103.779 201.563 103.506 201.237 103.151C200.906 102.796 200.652 102.378 200.471 101.896C200.29 101.414 200.199 100.886 200.199 100.309C200.199 99.7311 200.29 99.199 200.471 98.7215C200.652 98.244 200.911 97.8256 201.237 97.4663C201.568 97.1115 201.953 96.8341 202.397 96.6431C202.841 96.4476 203.335 96.352 203.874 96.352C204.414 96.352 204.899 96.4476 205.347 96.6431C205.796 96.8387 206.186 97.1115 206.512 97.4663C206.843 97.821 207.097 98.2394 207.273 98.7215C207.45 99.2036 207.541 99.7311 207.541 100.309ZM206.838 100.309C206.838 99.6584 206.711 99.0808 206.453 98.5896C206.199 98.0939 205.85 97.7073 205.406 97.4299C204.962 97.1525 204.45 97.0115 203.865 97.0115C203.281 97.0115 202.773 97.1525 202.325 97.4299C201.876 97.7073 201.527 98.0939 201.273 98.5896C201.019 99.0853 200.897 99.6584 200.897 100.309C200.897 100.959 201.024 101.537 201.273 102.028C201.522 102.519 201.876 102.91 202.325 103.188C202.773 103.465 203.285 103.606 203.865 103.606C204.445 103.606 204.962 103.465 205.406 103.188C205.85 102.91 206.195 102.524 206.453 102.028C206.707 101.532 206.838 100.959 206.838 100.309Z" fill="white"/>
<path d="M219.7 97.0297C219.786 97.0888 219.84 97.1616 219.854 97.2571C219.867 97.348 219.845 97.439 219.777 97.5254C219.727 97.5982 219.663 97.6391 219.586 97.6391C219.509 97.6391 219.432 97.6255 219.351 97.5891C219.079 97.4072 218.784 97.2616 218.462 97.1616C218.141 97.057 217.801 97.0069 217.443 97.0069C216.999 97.0069 216.582 97.0888 216.201 97.248C215.82 97.4072 215.485 97.6346 215.2 97.9302C214.914 98.2258 214.692 98.5714 214.538 98.9762C214.379 99.3809 214.302 99.8221 214.302 100.309C214.302 100.795 214.384 101.259 214.542 101.669C214.701 102.078 214.928 102.428 215.218 102.719C215.508 103.01 215.839 103.238 216.219 103.388C216.6 103.542 217.008 103.62 217.447 103.62C217.805 103.62 218.145 103.57 218.462 103.465C218.78 103.36 219.079 103.224 219.355 103.047C219.428 103.001 219.505 102.987 219.586 102.997C219.668 103.006 219.736 103.051 219.795 103.124C219.854 103.206 219.876 103.292 219.863 103.388C219.849 103.483 219.799 103.551 219.722 103.597C219.541 103.715 219.324 103.824 219.074 103.933C218.825 104.038 218.562 104.124 218.286 104.179C218.009 104.238 217.728 104.265 217.452 104.265C216.926 104.265 216.432 104.17 215.965 103.979C215.499 103.788 215.091 103.52 214.737 103.169C214.384 102.819 214.103 102.405 213.899 101.923C213.695 101.441 213.591 100.9 213.591 100.309C213.591 99.7175 213.69 99.2127 213.894 98.7351C214.094 98.2576 214.37 97.8438 214.724 97.489C215.073 97.1343 215.485 96.8569 215.952 96.6568C216.419 96.4612 216.922 96.3611 217.452 96.3611C217.869 96.3611 218.268 96.4203 218.657 96.5385C219.047 96.6568 219.396 96.8205 219.709 97.0342L219.7 97.0297Z" fill="white"/>
<path d="M229.103 100.309C229.103 100.886 229.013 101.418 228.836 101.896C228.655 102.378 228.401 102.792 228.075 103.151C227.744 103.506 227.359 103.783 226.91 103.974C226.461 104.17 225.967 104.265 225.437 104.265C224.907 104.265 224.404 104.17 223.96 103.974C223.516 103.779 223.126 103.506 222.799 103.151C222.469 102.796 222.215 102.378 222.034 101.896C221.852 101.414 221.762 100.886 221.762 100.309C221.762 99.7311 221.852 99.199 222.034 98.7215C222.215 98.244 222.473 97.8256 222.799 97.4663C223.13 97.1115 223.516 96.8341 223.96 96.6431C224.404 96.4476 224.898 96.352 225.437 96.352C225.976 96.352 226.461 96.4476 226.91 96.6431C227.359 96.8387 227.748 97.1115 228.075 97.4663C228.405 97.821 228.659 98.2394 228.836 98.7215C229.013 99.2036 229.103 99.7311 229.103 100.309ZM228.401 100.309C228.401 99.6584 228.274 99.0808 228.016 98.5896C227.762 98.0939 227.413 97.7073 226.969 97.4299C226.525 97.1525 226.013 97.0115 225.428 97.0115C224.843 97.0115 224.336 97.1525 223.887 97.4299C223.438 97.7073 223.09 98.0939 222.836 98.5896C222.582 99.0853 222.46 99.6584 222.46 100.309C222.46 100.959 222.586 101.537 222.836 102.028C223.085 102.519 223.438 102.91 223.887 103.188C224.336 103.465 224.848 103.606 225.428 103.606C226.008 103.606 226.525 103.465 226.969 103.188C227.413 102.91 227.757 102.524 228.016 102.028C228.269 101.532 228.401 100.959 228.401 100.309Z" fill="white"/>
<path d="M235.897 103.506C235.992 103.506 236.073 103.538 236.137 103.601C236.2 103.665 236.236 103.738 236.236 103.829C236.236 103.924 236.205 104.002 236.137 104.065C236.069 104.129 235.992 104.161 235.897 104.161H231.995C231.899 104.161 231.822 104.129 231.759 104.061C231.696 103.997 231.664 103.92 231.664 103.829V96.7932C231.664 96.7068 231.696 96.6295 231.763 96.5613C231.831 96.493 231.913 96.4612 232.017 96.4612C232.103 96.4612 232.185 96.493 232.253 96.5613C232.321 96.6249 232.357 96.7022 232.357 96.7932V103.697L232.149 103.51H235.897V103.506Z" fill="white"/>
<path d="M241.067 97.3162L238.403 103.947C238.375 104.02 238.335 104.074 238.28 104.111C238.23 104.147 238.172 104.165 238.104 104.165C237.995 104.165 237.913 104.138 237.863 104.083C237.814 104.029 237.786 103.961 237.786 103.879C237.777 103.842 237.786 103.797 237.795 103.747L240.687 96.6431C240.714 96.5613 240.759 96.5067 240.814 96.4703C240.868 96.4385 240.931 96.4203 241.004 96.4203C241.086 96.4203 241.153 96.4385 241.208 96.4794C241.262 96.5203 241.303 96.5749 241.335 96.6386L244.217 103.711C244.231 103.756 244.24 103.797 244.24 103.842C244.24 103.947 244.208 104.024 244.14 104.079C244.072 104.133 244 104.161 243.909 104.161C243.836 104.161 243.773 104.143 243.719 104.102C243.664 104.061 243.623 104.006 243.592 103.942L240.863 97.2571L241.063 97.3117L241.067 97.3162ZM239.042 101.932L239.314 101.282H242.708L242.839 101.932H239.037H239.042Z" fill="white"/>
<path d="M249.823 96.4612C250.435 96.4612 250.915 96.6295 251.264 96.9615C251.613 97.2935 251.785 97.7573 251.785 98.3531C251.785 98.6669 251.717 98.9625 251.586 99.24C251.454 99.5128 251.26 99.7402 251.001 99.9085C250.743 100.081 250.426 100.177 250.054 100.2L250 99.9813C250.272 99.9813 250.534 100.018 250.793 100.095C251.051 100.172 251.287 100.295 251.495 100.463C251.704 100.632 251.871 100.841 251.994 101.095C252.116 101.35 252.18 101.655 252.18 102.014C252.18 102.396 252.116 102.724 251.989 102.997C251.862 103.269 251.686 103.497 251.468 103.665C251.25 103.838 251.001 103.961 250.729 104.038C250.457 104.115 250.167 104.152 249.868 104.152H246.923C246.827 104.152 246.75 104.12 246.687 104.052C246.623 103.988 246.592 103.911 246.592 103.82V96.7841C246.592 96.6977 246.623 96.6204 246.687 96.5522C246.75 96.4839 246.827 96.4521 246.923 96.4521H249.827L249.823 96.4612ZM249.723 97.1206H247.158L247.29 96.9114V100.022L247.167 99.8585H249.732C250.113 99.8494 250.43 99.7266 250.693 99.4855C250.951 99.2445 251.083 98.8852 251.083 98.4077C251.083 98.012 250.965 97.6982 250.725 97.4663C250.485 97.2343 250.154 97.1206 249.723 97.1206ZM249.809 100.532H247.235L247.29 100.454V103.61L247.222 103.51H249.818C250.294 103.51 250.689 103.392 251.001 103.151C251.314 102.915 251.473 102.533 251.473 102.014C251.473 101.646 251.395 101.355 251.241 101.136C251.087 100.918 250.883 100.759 250.63 100.668C250.376 100.577 250.099 100.532 249.809 100.532Z" fill="white"/>
<path d="M261.565 100.309C261.565 100.886 261.474 101.418 261.298 101.896C261.116 102.378 260.863 102.792 260.536 103.151C260.205 103.506 259.82 103.783 259.372 103.974C258.923 104.17 258.429 104.265 257.899 104.265C257.368 104.265 256.865 104.17 256.421 103.974C255.977 103.779 255.587 103.506 255.261 103.151C254.93 102.796 254.677 102.378 254.495 101.896C254.314 101.414 254.223 100.886 254.223 100.309C254.223 99.7311 254.314 99.199 254.495 98.7215C254.677 98.244 254.935 97.8256 255.261 97.4663C255.592 97.1115 255.977 96.8341 256.421 96.6431C256.865 96.4476 257.359 96.352 257.899 96.352C258.438 96.352 258.923 96.4476 259.372 96.6431C259.82 96.8387 260.21 97.1115 260.536 97.4663C260.867 97.821 261.121 98.2394 261.298 98.7215C261.474 99.2036 261.565 99.7311 261.565 100.309ZM260.863 100.309C260.863 99.6584 260.736 99.0808 260.477 98.5896C260.224 98.0939 259.875 97.7073 259.43 97.4299C258.986 97.1525 258.474 97.0115 257.89 97.0115C257.305 97.0115 256.797 97.1525 256.349 97.4299C255.9 97.7073 255.551 98.0939 255.297 98.5896C255.044 99.0853 254.921 99.6584 254.921 100.309C254.921 100.959 255.048 101.537 255.297 102.028C255.547 102.519 255.9 102.91 256.349 103.188C256.797 103.465 257.31 103.606 257.89 103.606C258.47 103.606 258.986 103.465 259.43 103.188C259.875 102.91 260.219 102.524 260.477 102.028C260.731 101.532 260.863 100.959 260.863 100.309Z" fill="white"/>
<path d="M264.502 104.156C264.393 104.156 264.302 104.124 264.234 104.056C264.166 103.992 264.13 103.915 264.13 103.824V96.7886C264.13 96.7022 264.162 96.6249 264.225 96.5567C264.289 96.4885 264.366 96.4566 264.461 96.4566H267.42C267.837 96.4566 268.209 96.5476 268.539 96.725C268.87 96.9069 269.124 97.1525 269.31 97.4663C269.496 97.7801 269.591 98.1394 269.591 98.5441C269.591 98.867 269.532 99.1626 269.414 99.431C269.296 99.6993 269.133 99.9267 268.92 100.113C268.707 100.3 268.472 100.441 268.209 100.536L267.823 100.404C268.095 100.432 268.345 100.522 268.58 100.673C268.816 100.823 269.002 101.027 269.147 101.287C269.287 101.546 269.364 101.855 269.373 102.214C269.382 102.528 269.396 102.774 269.423 102.951C269.45 103.128 269.487 103.26 269.536 103.347C269.586 103.433 269.654 103.506 269.736 103.556C269.808 103.601 269.858 103.661 269.885 103.742C269.913 103.824 269.904 103.902 269.858 103.974C269.831 104.033 269.786 104.074 269.727 104.102C269.668 104.129 269.609 104.138 269.55 104.138C269.491 104.138 269.437 104.124 269.387 104.093C269.278 104.033 269.169 103.942 269.07 103.82C268.965 103.697 268.879 103.51 268.811 103.269C268.743 103.028 268.707 102.692 268.707 102.26C268.707 101.973 268.662 101.741 268.571 101.559C268.481 101.377 268.363 101.236 268.222 101.136C268.082 101.032 267.923 100.964 267.751 100.927C267.579 100.891 267.416 100.873 267.261 100.873H264.71L264.832 100.709V103.82C264.832 103.906 264.805 103.983 264.746 104.052C264.687 104.12 264.61 104.152 264.515 104.152L264.502 104.156ZM264.701 100.263H267.452C267.701 100.24 267.932 100.159 268.15 100.022C268.367 99.8812 268.544 99.6856 268.68 99.4355C268.82 99.1808 268.888 98.8898 268.888 98.5623C268.888 98.1439 268.748 97.7983 268.467 97.5254C268.186 97.2525 267.819 97.1115 267.366 97.1115H264.746L264.823 96.9706V100.422L264.701 100.268V100.263Z" fill="white"/>
<path d="M275.043 97.3162L272.378 103.947C272.351 104.02 272.31 104.074 272.256 104.111C272.206 104.147 272.147 104.165 272.079 104.165C271.97 104.165 271.889 104.138 271.839 104.083C271.789 104.029 271.762 103.961 271.762 103.879C271.753 103.842 271.762 103.797 271.771 103.747L274.662 96.6431C274.689 96.5613 274.735 96.5067 274.789 96.4703C274.843 96.4385 274.907 96.4203 274.979 96.4203C275.061 96.4203 275.129 96.4385 275.183 96.4794C275.238 96.5203 275.278 96.5749 275.31 96.6386L278.192 103.711C278.206 103.756 278.215 103.797 278.215 103.842C278.215 103.947 278.183 104.024 278.115 104.079C278.052 104.133 277.975 104.161 277.884 104.161C277.812 104.161 277.748 104.143 277.694 104.102C277.639 104.061 277.599 104.006 277.567 103.942L274.839 97.2571L275.038 97.3117L275.043 97.3162ZM273.017 101.932L273.289 101.282H276.683L276.815 101.932H273.012H273.017Z" fill="white"/>
<path d="M279.688 97.0843C279.602 97.0843 279.525 97.057 279.457 96.9978C279.389 96.9387 279.357 96.866 279.357 96.7796C279.357 96.684 279.389 96.6067 279.457 96.5476C279.52 96.4885 279.597 96.4612 279.688 96.4612H284.89C284.986 96.4612 285.067 96.4885 285.131 96.5476C285.194 96.6067 285.23 96.684 285.23 96.7796C285.23 96.8751 285.199 96.9478 285.131 97.0069C285.063 97.0661 284.986 97.0888 284.89 97.0888H279.688V97.0843ZM282.294 104.156C282.189 104.156 282.108 104.124 282.04 104.056C281.972 103.988 281.94 103.915 281.94 103.824V96.8205H282.629V103.824C282.629 103.911 282.597 103.988 282.529 104.056C282.466 104.124 282.384 104.156 282.289 104.156H282.294Z" fill="white"/>
<path d="M288.335 103.815C288.326 103.911 288.289 103.992 288.221 104.056C288.153 104.124 288.072 104.156 287.986 104.156C287.877 104.156 287.791 104.124 287.732 104.056C287.673 103.992 287.646 103.911 287.646 103.815V96.7977C287.646 96.7022 287.678 96.6204 287.745 96.5567C287.813 96.4885 287.895 96.4566 287.999 96.4566C288.085 96.4566 288.167 96.4885 288.235 96.5567C288.303 96.6204 288.339 96.7022 288.339 96.7977V103.815H288.335Z" fill="white"/>
<path d="M296.936 96.4476C297.036 96.4476 297.122 96.4748 297.181 96.534C297.244 96.5931 297.276 96.6704 297.276 96.7659C297.276 96.8114 297.267 96.8614 297.244 96.9205L294.317 103.933C294.28 104.006 294.235 104.061 294.176 104.097C294.117 104.133 294.058 104.152 293.999 104.152C293.931 104.152 293.873 104.133 293.814 104.097C293.755 104.061 293.714 104.011 293.691 103.942L290.777 96.9387C290.777 96.9387 290.75 96.8932 290.746 96.8614C290.737 96.8341 290.736 96.8023 290.736 96.775C290.736 96.6704 290.773 96.5931 290.845 96.534C290.918 96.4748 290.99 96.4476 291.063 96.4476C291.217 96.4476 291.326 96.5294 291.394 96.6886L294.131 103.265H293.931L296.628 96.6659C296.7 96.5203 296.805 96.4476 296.936 96.4476Z" fill="white"/>
<path d="M301.876 97.3162L299.211 103.947C299.184 104.02 299.143 104.074 299.089 104.111C299.039 104.147 298.98 104.165 298.912 104.165C298.803 104.165 298.722 104.138 298.672 104.083C298.622 104.029 298.595 103.961 298.595 103.879C298.586 103.842 298.595 103.797 298.604 103.747L301.495 96.6431C301.522 96.5613 301.568 96.5067 301.622 96.4703C301.676 96.4385 301.74 96.4203 301.812 96.4203C301.894 96.4203 301.962 96.4385 302.016 96.4794C302.071 96.5203 302.111 96.5749 302.143 96.6386L305.025 103.711C305.039 103.756 305.048 103.797 305.048 103.842C305.048 103.947 305.016 104.024 304.948 104.079C304.885 104.133 304.808 104.161 304.717 104.161C304.645 104.161 304.581 104.143 304.527 104.102C304.473 104.061 304.432 104.006 304.4 103.942L301.672 97.2571L301.867 97.3117L301.876 97.3162ZM299.85 101.932L300.122 101.282H303.521L303.652 101.932H299.85Z" fill="white"/>
<path d="M314.52 96.4612C315.059 96.4612 315.53 96.5658 315.934 96.7705C316.337 96.9751 316.668 97.2616 316.935 97.6209C317.203 97.9847 317.397 98.394 317.529 98.8579C317.66 99.3218 317.719 99.8039 317.719 100.309C317.719 101.014 317.606 101.655 317.375 102.237C317.144 102.819 316.795 103.283 316.323 103.633C315.852 103.983 315.249 104.156 314.52 104.156H311.724C311.628 104.156 311.551 104.124 311.488 104.056C311.424 103.992 311.393 103.915 311.393 103.824V96.7886C311.393 96.7022 311.424 96.6249 311.488 96.5567C311.551 96.4885 311.628 96.4566 311.724 96.4566H314.52V96.4612ZM314.411 103.51C315.023 103.51 315.521 103.369 315.906 103.083C316.292 102.796 316.573 102.41 316.749 101.923C316.931 101.437 317.017 100.9 317.017 100.313C317.017 99.8949 316.967 99.4946 316.867 99.1035C316.767 98.717 316.613 98.3713 316.405 98.0757C316.196 97.7801 315.925 97.5436 315.594 97.3708C315.263 97.198 314.864 97.1115 314.406 97.1115H312.009L312.086 97.0251V103.624L312.018 103.515H314.406L314.411 103.51Z" fill="white"/>
<path d="M320.615 96.4612H324.626C324.721 96.4612 324.802 96.493 324.866 96.5567C324.929 96.6204 324.966 96.6977 324.966 96.7932C324.966 96.8887 324.934 96.966 324.866 97.0251C324.798 97.0843 324.721 97.1115 324.626 97.1115H320.869L320.978 96.9251V100.013L320.855 99.8721H324.132C324.227 99.8721 324.308 99.904 324.372 99.9722C324.435 100.04 324.472 100.113 324.472 100.204C324.472 100.3 324.44 100.377 324.372 100.436C324.304 100.495 324.227 100.522 324.132 100.522H320.878L320.978 100.413V103.579L320.923 103.51H324.626C324.721 103.51 324.802 103.542 324.866 103.61C324.929 103.679 324.966 103.751 324.966 103.842C324.966 103.938 324.934 104.015 324.866 104.074C324.798 104.133 324.721 104.161 324.626 104.161H320.615C320.52 104.161 320.443 104.129 320.379 104.061C320.316 103.997 320.284 103.92 320.284 103.829V96.7932C320.284 96.7068 320.316 96.6295 320.379 96.5613C320.443 96.493 320.52 96.4612 320.615 96.4612Z" fill="white"/>
<path d="M334.442 96.4612C334.85 96.4612 335.212 96.5567 335.525 96.7432C335.838 96.9296 336.087 97.1889 336.268 97.5163C336.449 97.8483 336.54 98.2258 336.54 98.6578C336.54 99.0899 336.449 99.4537 336.268 99.7948C336.087 100.136 335.838 100.404 335.525 100.604C335.212 100.804 334.85 100.9 334.442 100.9H332.121L332.176 100.8V103.824C332.176 103.911 332.144 103.988 332.076 104.056C332.008 104.124 331.936 104.156 331.845 104.156C331.741 104.156 331.664 104.124 331.605 104.056C331.546 103.992 331.519 103.915 331.519 103.824V96.7886C331.519 96.7022 331.55 96.6249 331.614 96.5567C331.677 96.4885 331.754 96.4566 331.849 96.4566H334.446L334.442 96.4612ZM334.442 100.268C334.727 100.268 334.976 100.195 335.185 100.054C335.393 99.913 335.561 99.7175 335.683 99.4719C335.806 99.2263 335.865 98.958 335.865 98.6624C335.865 98.3668 335.806 98.0848 335.683 97.8529C335.561 97.6209 335.398 97.439 335.185 97.3071C334.972 97.1752 334.723 97.107 334.442 97.107H332.121L332.176 97.0206V100.331L332.108 100.268H334.442Z" fill="white"/>
<path d="M339.427 104.156C339.318 104.156 339.227 104.124 339.159 104.056C339.091 103.992 339.055 103.915 339.055 103.824V96.7886C339.055 96.7022 339.087 96.6249 339.15 96.5567C339.214 96.4885 339.291 96.4566 339.386 96.4566H342.345C342.762 96.4566 343.134 96.5476 343.465 96.725C343.791 96.9069 344.049 97.1525 344.235 97.4663C344.421 97.7801 344.516 98.1394 344.516 98.5441C344.516 98.867 344.457 99.1626 344.339 99.431C344.221 99.6993 344.058 99.9267 343.845 100.113C343.632 100.3 343.397 100.441 343.134 100.536L342.749 100.404C343.021 100.432 343.27 100.522 343.505 100.673C343.741 100.823 343.927 101.027 344.072 101.287C344.217 101.546 344.289 101.855 344.298 102.214C344.308 102.528 344.321 102.774 344.348 102.951C344.376 103.128 344.412 103.26 344.462 103.347C344.512 103.433 344.579 103.506 344.657 103.556C344.729 103.601 344.779 103.661 344.806 103.742C344.833 103.824 344.824 103.902 344.779 103.974C344.752 104.033 344.706 104.074 344.647 104.102C344.589 104.129 344.53 104.138 344.471 104.138C344.412 104.138 344.357 104.124 344.308 104.093C344.199 104.033 344.09 103.942 343.99 103.82C343.886 103.697 343.8 103.51 343.732 103.269C343.664 103.028 343.628 102.692 343.628 102.26C343.628 101.973 343.582 101.741 343.492 101.559C343.401 101.377 343.283 101.236 343.143 101.136C343.002 101.032 342.844 100.964 342.672 100.927C342.499 100.891 342.336 100.873 342.182 100.873H339.631L339.753 100.709V103.82C339.753 103.906 339.726 103.983 339.667 104.052C339.608 104.12 339.531 104.152 339.436 104.152L339.427 104.156ZM339.626 100.263H342.377C342.626 100.24 342.857 100.159 343.075 100.022C343.292 99.8812 343.469 99.6856 343.605 99.4355C343.746 99.1808 343.814 98.8898 343.814 98.5623C343.814 98.1439 343.673 97.7983 343.392 97.5254C343.111 97.2525 342.744 97.1115 342.291 97.1115H339.671L339.749 96.9706V100.422L339.626 100.268V100.263Z" fill="white"/>
<path d="M354.128 100.309C354.128 100.886 354.037 101.418 353.861 101.896C353.684 102.378 353.426 102.792 353.099 103.151C352.769 103.506 352.383 103.783 351.93 103.974C351.481 104.17 350.988 104.265 350.457 104.265C349.927 104.265 349.424 104.17 348.98 103.974C348.536 103.779 348.146 103.506 347.82 103.151C347.489 102.796 347.235 102.378 347.054 101.896C346.873 101.414 346.782 100.886 346.782 100.309C346.782 99.7311 346.873 99.199 347.054 98.7215C347.235 98.244 347.493 97.8256 347.82 97.4663C348.146 97.1115 348.536 96.8341 348.98 96.6431C349.424 96.4476 349.918 96.352 350.457 96.352C350.997 96.352 351.481 96.4476 351.93 96.6431C352.379 96.8387 352.769 97.1115 353.099 97.4663C353.426 97.821 353.684 98.2394 353.861 98.7215C354.042 99.2036 354.128 99.7311 354.128 100.309ZM353.426 100.309C353.426 99.6584 353.299 99.0808 353.04 98.5896C352.787 98.0939 352.438 97.7073 351.994 97.4299C351.549 97.1525 351.037 97.0115 350.453 97.0115C349.868 97.0115 349.361 97.1525 348.912 97.4299C348.463 97.7073 348.11 98.0939 347.861 98.5896C347.611 99.0853 347.484 99.6584 347.484 100.309C347.484 100.959 347.611 101.537 347.861 102.028C348.11 102.519 348.463 102.91 348.912 103.188C349.361 103.465 349.873 103.606 350.453 103.606C351.033 103.606 351.549 103.465 351.994 103.188C352.433 102.91 352.782 102.524 353.04 102.028C353.294 101.532 353.426 100.959 353.426 100.309Z" fill="white"/>
<path d="M358.347 104.265C357.885 104.265 357.473 104.138 357.11 103.879C356.743 103.624 356.467 103.288 356.276 102.878C356.24 102.815 356.222 102.751 356.222 102.692C356.222 102.596 356.258 102.519 356.331 102.464C356.403 102.41 356.476 102.383 356.548 102.383C356.621 102.383 356.68 102.401 356.729 102.437C356.779 102.474 356.82 102.519 356.856 102.569C356.997 102.878 357.196 103.124 357.454 103.315C357.713 103.506 358.012 103.601 358.347 103.601C358.683 103.601 358.977 103.529 359.231 103.388C359.485 103.247 359.684 103.047 359.829 102.787C359.974 102.533 360.047 102.237 360.047 101.91V96.7841C360.047 96.6977 360.078 96.6204 360.146 96.5522C360.214 96.4839 360.296 96.4521 360.4 96.4521C360.504 96.4521 360.586 96.4839 360.645 96.5522C360.708 96.6158 360.74 96.6931 360.74 96.7841V101.91C360.74 102.364 360.636 102.769 360.432 103.124C360.228 103.479 359.947 103.756 359.589 103.961C359.231 104.161 358.819 104.265 358.352 104.265H358.347Z" fill="white"/>
<path d="M364.121 96.4612H368.132C368.227 96.4612 368.308 96.493 368.372 96.5567C368.435 96.6204 368.471 96.6977 368.471 96.7932C368.471 96.8887 368.44 96.966 368.372 97.0251C368.304 97.0843 368.227 97.1115 368.132 97.1115H364.375L364.483 96.9251V100.013L364.361 99.8721H367.638C367.733 99.8721 367.814 99.904 367.878 99.9722C367.941 100.04 367.977 100.113 367.977 100.204C367.977 100.3 367.946 100.377 367.878 100.436C367.81 100.495 367.733 100.522 367.638 100.522H364.384L364.483 100.413V103.579L364.429 103.51H368.132C368.227 103.51 368.308 103.542 368.372 103.61C368.435 103.679 368.471 103.751 368.471 103.842C368.471 103.938 368.44 104.015 368.372 104.074C368.304 104.133 368.227 104.161 368.132 104.161H364.121C364.026 104.161 363.949 104.129 363.885 104.061C363.822 103.997 363.79 103.92 363.79 103.829V96.7932C363.79 96.7068 363.822 96.6295 363.885 96.5613C363.949 96.493 364.026 96.4612 364.121 96.4612Z" fill="white"/>
<path d="M370.697 97.0843C370.61 97.0843 370.533 97.057 370.465 96.9978C370.397 96.9387 370.366 96.866 370.366 96.7796C370.366 96.684 370.397 96.6067 370.465 96.5476C370.529 96.4885 370.606 96.4612 370.697 96.4612H375.899C375.994 96.4612 376.076 96.4885 376.139 96.5476C376.203 96.6067 376.239 96.684 376.239 96.7796C376.239 96.8751 376.207 96.9478 376.139 97.0069C376.071 97.0661 375.994 97.0888 375.899 97.0888H370.697V97.0843ZM373.302 104.156C373.198 104.156 373.117 104.124 373.049 104.056C372.981 103.988 372.949 103.915 372.949 103.824V96.8205H373.638V103.824C373.638 103.911 373.606 103.988 373.538 104.056C373.475 104.124 373.393 104.156 373.298 104.156H373.302Z" fill="white"/>
<path d="M385.271 100.309C385.271 100.886 385.18 101.418 385.004 101.896C384.827 102.378 384.569 102.792 384.242 103.151C383.911 103.506 383.526 103.783 383.073 103.974C382.624 104.17 382.13 104.265 381.6 104.265C381.07 104.265 380.567 104.17 380.123 103.974C379.679 103.779 379.289 103.506 378.963 103.151C378.632 102.796 378.378 102.378 378.197 101.896C378.016 101.414 377.925 100.886 377.925 100.309C377.925 99.7311 378.016 99.199 378.197 98.7215C378.378 98.244 378.636 97.8256 378.963 97.4663C379.289 97.1115 379.679 96.8341 380.123 96.6431C380.567 96.4476 381.061 96.352 381.6 96.352C382.139 96.352 382.624 96.4476 383.073 96.6431C383.522 96.8387 383.911 97.1115 384.242 97.4663C384.569 97.821 384.827 98.2394 385.004 98.7215C385.185 99.2036 385.271 99.7311 385.271 100.309ZM384.569 100.309C384.569 99.6584 384.442 99.0808 384.183 98.5896C383.93 98.0939 383.581 97.7073 383.136 97.4299C382.692 97.1525 382.18 97.0115 381.596 97.0115C381.011 97.0115 380.503 97.1525 380.055 97.4299C379.606 97.7073 379.253 98.0939 379.003 98.5896C378.754 99.0853 378.627 99.6584 378.627 100.309C378.627 100.959 378.754 101.537 379.003 102.028C379.253 102.519 379.606 102.91 380.055 103.188C380.503 103.465 381.016 103.606 381.596 103.606C382.176 103.606 382.692 103.465 383.136 103.188C383.576 102.91 383.925 102.524 384.183 102.028C384.437 101.532 384.569 100.959 384.569 100.309Z" fill="white"/>
<path d="M389.948 104.265C389.395 104.274 388.91 104.188 388.502 104.006C388.094 103.829 387.705 103.551 387.328 103.188C387.292 103.151 387.26 103.11 387.233 103.065C387.206 103.019 387.197 102.969 387.197 102.91C387.197 102.824 387.233 102.742 387.301 102.669C387.369 102.596 387.451 102.56 387.537 102.56C387.623 102.56 387.705 102.596 387.777 102.669C388.063 102.978 388.384 103.21 388.747 103.374C389.109 103.538 389.499 103.615 389.916 103.615C390.265 103.615 390.578 103.56 390.854 103.451C391.126 103.342 391.344 103.183 391.507 102.978C391.67 102.774 391.747 102.537 391.747 102.264C391.738 101.928 391.647 101.655 391.466 101.45C391.289 101.246 391.049 101.073 390.75 100.932C390.451 100.791 390.12 100.673 389.753 100.568C389.454 100.472 389.168 100.368 388.892 100.254C388.62 100.14 388.375 99.9995 388.167 99.8357C387.958 99.672 387.795 99.4673 387.677 99.2263C387.56 98.9853 387.501 98.6942 387.501 98.3577C387.501 97.9711 387.605 97.6209 387.809 97.3162C388.013 97.0115 388.303 96.775 388.679 96.6022C389.055 96.4294 389.49 96.343 389.989 96.343C390.419 96.343 390.836 96.4157 391.23 96.5613C391.629 96.7068 391.946 96.9251 392.178 97.2116C392.286 97.3298 392.341 97.4344 392.341 97.5299C392.341 97.6118 392.304 97.6846 392.232 97.7573C392.159 97.8256 392.078 97.8619 391.992 97.8619C391.919 97.8619 391.856 97.8347 391.806 97.7846C391.684 97.63 391.525 97.4936 391.335 97.3708C391.144 97.248 390.936 97.157 390.705 97.0888C390.474 97.0206 390.233 96.9887 389.989 96.9887C389.644 96.9887 389.336 97.0433 389.064 97.1479C388.792 97.2525 388.575 97.4072 388.416 97.6027C388.257 97.8028 388.18 98.0439 388.18 98.3304C388.18 98.6396 388.267 98.8898 388.443 99.0853C388.62 99.2809 388.847 99.4401 389.132 99.5674C389.418 99.6947 389.721 99.813 390.043 99.9267C390.356 100.013 390.659 100.118 390.949 100.231C391.239 100.345 391.493 100.486 391.715 100.654C391.937 100.823 392.114 101.036 392.241 101.291C392.368 101.546 392.431 101.869 392.431 102.26C392.431 102.651 392.327 102.969 392.114 103.269C391.901 103.57 391.611 103.811 391.244 103.983C390.877 104.156 390.442 104.252 389.943 104.256L389.948 104.265Z" fill="white"/>
</g>
<defs>
<clipPath id="clip0_28_117">
<rect width="415" height="119" fill="white"/>
</clipPath>
</defs>
</svg>
