<svg width="413" height="48" viewBox="0 0 413 48" fill="none" xmlns="http://www.w3.org/2000/svg">
<g clip-path="url(#clip0_29_190)">
<path fill-rule="evenodd" clip-rule="evenodd" d="M48 24C48 37.2548 37.2548 48 24 48C10.7452 48 0 37.2548 0 24C0 10.7452 10.7452 0 24 0C37.2548 0 48 10.7452 48 24ZM25.2319 9.05743C28.7688 9.34976 32.0848 10.8964 34.5818 13.4183C37.0581 15.9238 38.5651 19.2266 38.8348 22.739C39.1044 26.2514 38.1192 29.7455 36.0544 32.5996C33.9897 35.4538 30.9793 37.4828 27.5589 38.3258C24.1385 39.1687 20.53 38.7708 17.3755 37.2028L9.86183 38.9837C9.74795 39.011 9.62846 39.003 9.5193 38.9606C9.41014 38.9182 9.31651 38.8435 9.25092 38.7465C9.20615 38.6825 9.17504 38.6101 9.15956 38.5336C9.14407 38.4571 9.14454 38.3782 9.16092 38.3019L10.74 30.6356C9.13136 27.4721 8.70611 23.838 9.54095 20.3886C10.3758 16.9393 12.4158 13.9018 15.2929 11.824C18.1701 9.7463 21.695 8.76511 25.2319 9.05743ZM25.8785 35.368C28.2867 34.9765 30.5114 33.8393 32.2391 32.1165C34.4133 29.942 35.6398 26.9961 35.651 23.9211C35.6623 20.8461 34.4574 17.8913 32.2991 15.701C32.2778 15.6824 32.2577 15.6624 32.2391 15.641C30.0537 13.4563 27.0901 12.229 24 12.229C20.9099 12.229 17.9463 13.4563 15.7609 15.641C14.0217 17.3804 12.8776 19.6257 12.4925 22.0551C12.1075 24.4846 12.5012 26.9736 13.6173 29.1656L14.13 30.1774L13.1755 34.8137L13.1618 34.871L17.7682 33.7801L18.8155 34.2983C20.9998 35.3852 23.4702 35.7594 25.8785 35.368ZM29.2527 30.9628C30.3736 30.6928 31.2655 29.6046 31.83 28.7156C31.9167 28.5736 31.9699 28.4137 31.9854 28.2481C32.0008 28.0825 31.9782 27.9156 31.9193 27.76C31.8603 27.6045 31.7666 27.4645 31.6452 27.3508C31.5239 27.237 31.3781 27.1525 31.2191 27.1037L28.3364 26.2856C28.1508 26.2329 27.9546 26.2304 27.7677 26.2783C27.5809 26.3263 27.4101 26.4228 27.2727 26.5583L26.5609 27.2756C26.4162 27.4251 26.23 27.5279 26.0263 27.5707C25.8227 27.6135 25.6109 27.5943 25.4182 27.5156C24.6982 27.2265 23.5609 26.3783 22.5355 25.451C21.6218 24.6301 20.7982 23.7437 20.4546 23.141C20.3511 22.9575 20.3049 22.7473 20.3219 22.5373C20.3389 22.3273 20.4183 22.1273 20.55 21.9628L21.1636 21.1665C21.2829 21.0139 21.3583 20.8317 21.3818 20.6395C21.4054 20.4474 21.3761 20.2524 21.2973 20.0756L20.0836 17.3483C20.0164 17.1952 19.9144 17.0599 19.7855 16.9533C19.6567 16.8466 19.5047 16.7717 19.3417 16.7343C19.1787 16.6969 19.0092 16.6982 18.8468 16.738C18.6844 16.7779 18.5336 16.8552 18.4064 16.9637C17.6018 17.6401 16.6473 18.6765 16.5327 19.8219C16.3255 21.8401 17.1818 24.3846 20.4791 27.4419L20.5255 27.4828C24.2755 30.9792 27.2891 31.4374 29.2527 30.9628Z" fill="#00FFCE"/>
</g>
<g clip-path="url(#clip1_29_190)">
<path d="M101.594 24C101.594 26.5371 99.5371 28.5938 97 28.5938C94.4629 28.5938 92.4062 26.5371 92.4062 24C92.4062 21.4629 94.4629 19.4062 97 19.4062C99.5371 19.4062 101.594 21.4629 101.594 24Z" fill="#00FFCE"/>
<path d="M107.743 15.8724C107.522 15.274 107.17 14.7324 106.712 14.2878C106.268 13.8301 105.726 13.4778 105.128 13.257C104.642 13.0684 103.913 12.8439 102.569 12.7827C101.115 12.7164 100.68 12.7021 97 12.7021C93.3199 12.7021 92.8842 12.7161 91.431 12.7823C90.0874 12.8439 89.3575 13.0684 88.8723 13.257C88.2736 13.4778 87.7319 13.8301 87.2877 14.2878C86.83 14.7324 86.4777 15.2737 86.2565 15.8724C86.0679 16.358 85.8434 17.0879 85.7822 18.4315C85.7159 19.8846 85.7017 20.3204 85.7017 24.0005C85.7017 27.6802 85.7159 28.116 85.7822 29.5695C85.8434 30.9131 86.0679 31.6426 86.2565 32.1282C86.4777 32.7269 86.8296 33.2682 87.2874 33.7128C87.7319 34.1705 88.2732 34.5228 88.8719 34.7437C89.3575 34.9326 90.0874 35.1571 91.431 35.2183C92.8842 35.2845 93.3196 35.2985 96.9996 35.2985C100.68 35.2985 101.116 35.2845 102.569 35.2183C103.912 35.1571 104.642 34.9326 105.128 34.7437C106.33 34.28 107.28 33.3301 107.743 32.1282C107.932 31.6426 108.156 30.9131 108.218 29.5695C108.284 28.116 108.298 27.6802 108.298 24.0005C108.298 20.3204 108.284 19.8846 108.218 18.4315C108.157 17.0879 107.932 16.358 107.743 15.8724ZM97 31.0768C93.0914 31.0768 89.923 27.9087 89.923 24.0001C89.923 20.0916 93.0914 16.9235 97 16.9235C100.908 16.9235 104.077 20.0916 104.077 24.0001C104.077 27.9087 100.908 31.0768 97 31.0768ZM104.356 18.2975C103.443 18.2975 102.703 17.557 102.703 16.6437C102.703 15.7303 103.443 14.9899 104.356 14.9899C105.27 14.9899 106.01 15.7303 106.01 16.6437C106.01 17.557 105.27 18.2975 104.356 18.2975Z" fill="#00FFCE"/>
<path d="M97 0C83.7472 0 73 10.7472 73 24C73 37.2528 83.7472 48 97 48C110.253 48 121 37.2528 121 24C121 10.7472 110.253 0 97 0ZM110.698 29.6818C110.631 31.1488 110.398 32.1504 110.058 33.0271C109.342 34.8783 107.878 36.3417 106.027 37.0576C105.151 37.3982 104.149 37.6311 102.682 37.6981C101.213 37.7651 100.743 37.7812 97.0004 37.7812C93.2573 37.7812 92.7882 37.7651 91.3182 37.6981C89.8516 37.6311 88.8496 37.3982 87.9733 37.0576C87.0533 36.7115 86.2206 36.1692 85.5321 35.4679C84.8312 34.7798 84.2888 33.9467 83.9427 33.0271C83.6022 32.1508 83.3689 31.1488 83.3022 29.6821C83.2345 28.2122 83.2188 27.7427 83.2188 24C83.2188 20.2573 83.2345 19.7878 83.3019 18.3182C83.3685 16.8512 83.6014 15.8496 83.942 14.9729C84.2881 14.0533 84.8308 13.2202 85.5321 12.5321C86.2202 11.8308 87.0533 11.2885 87.9729 10.9424C88.8496 10.6018 89.8512 10.3689 91.3182 10.3019C92.7878 10.2349 93.2573 10.2188 97 10.2188C100.743 10.2188 101.212 10.2349 102.682 10.3022C104.149 10.3689 105.15 10.6018 106.027 10.942C106.947 11.2881 107.78 11.8308 108.468 12.5321C109.169 13.2206 109.712 14.0533 110.058 14.9729C110.399 15.8496 110.631 16.8512 110.698 18.3182C110.766 19.7878 110.781 20.2573 110.781 24C110.781 27.7427 110.766 28.2122 110.698 29.6818Z" fill="#00FFCE"/>
</g>
<g clip-path="url(#clip2_29_190)">
<path fill-rule="evenodd" clip-rule="evenodd" d="M169.923 0.727539C174.25 0.776914 178.159 1.84033 181.65 3.91779C185.099 5.95377 187.969 8.84062 189.984 12.3023C192.048 15.8142 193.105 19.7468 193.155 24.1C193.032 30.0563 191.153 35.1435 187.519 39.3617C183.884 43.5799 179.229 46.1895 174.41 47.1899V30.4905H178.966L179.996 23.928H173.097V19.6297C173.059 18.7386 173.341 17.8633 173.892 17.1619C174.444 16.4586 175.415 16.089 176.806 16.053H180.972V10.3044C180.913 10.2851 180.345 10.2091 179.271 10.0762C178.052 9.93361 176.827 9.85745 175.6 9.84805C172.823 9.86087 170.626 10.6442 169.011 12.1981C167.395 13.7516 166.57 15.9991 166.535 18.9407V23.928H161.285V30.4905H166.535V47.1899C160.618 46.1895 155.963 43.5799 152.328 39.3617C148.693 35.1435 146.815 30.0563 146.692 24.1C146.741 19.7466 147.798 15.814 149.863 12.3023C151.878 8.84062 154.747 5.95377 158.197 3.91779C161.688 1.84073 165.596 0.777314 169.923 0.727539Z" fill="#00FFCE"/>
</g>
<g clip-path="url(#clip3_29_190)">
<path d="M243 0C229.747 0 219 10.7472 219 24C219 37.2528 229.747 48 243 48C256.253 48 267 37.2528 267 24C267 10.7472 256.253 0 243 0ZM236.026 36.2812H230.181V18.6962H236.026V36.2812ZM233.104 16.2949H233.065C231.104 16.2949 229.835 14.9447 229.835 13.2572C229.835 11.5316 231.143 10.2188 233.142 10.2188C235.142 10.2188 236.372 11.5316 236.41 13.2572C236.41 14.9447 235.142 16.2949 233.104 16.2949ZM257.102 36.2812H251.258V26.8737C251.258 24.5094 250.411 22.897 248.297 22.897C246.682 22.897 245.72 23.9846 245.298 25.0345C245.143 25.4103 245.105 25.9354 245.105 26.4609V36.2812H239.261C239.261 36.2812 239.337 20.3459 239.261 18.6962H245.105V21.186C245.882 19.9878 247.272 18.2834 250.373 18.2834C254.219 18.2834 257.102 20.7968 257.102 26.198V36.2812Z" fill="#00FFCE"/>
</g>
<g clip-path="url(#clip4_29_190)">
<path d="M311.669 25.3235C311.211 25.1635 310.229 25.0781 308.704 25.0781H306.624C306.56 25.0781 306.517 25.1315 306.517 25.1848V29.4621C306.517 29.5261 306.56 29.5688 306.624 29.5688H309.099C310.304 29.5688 311.061 29.5368 311.392 29.4621C311.893 29.3661 312.288 29.1421 312.608 28.7901C312.917 28.4381 313.077 27.9581 313.077 27.3608C313.077 26.8595 312.96 26.4328 312.715 26.0808C312.469 25.7395 312.128 25.4835 311.669 25.3235Z" fill="#00FFCE"/>
<path d="M323.467 21.9736C322.731 21.9736 322.123 22.2296 321.643 22.7523C321.184 23.2536 320.981 23.7336 320.939 24.427C320.939 24.491 320.992 24.555 321.067 24.555H325.856C325.931 24.555 325.984 24.491 325.984 24.427C325.984 23.7976 325.685 23.179 325.227 22.7096C324.736 22.219 324.16 21.9736 323.467 21.9736Z" fill="#00FFCE"/>
<path d="M306.624 22.2831H308.192C309.493 22.2831 310.304 22.2618 310.624 22.2298C311.2 22.1658 311.648 21.9631 311.968 21.6325C312.299 21.3018 312.459 20.8645 312.459 20.3205C312.459 19.7978 312.32 19.3818 312.032 19.0511C311.755 18.7311 311.328 18.5285 310.773 18.4645C310.443 18.4218 309.493 18.4111 307.915 18.4111H306.613C306.549 18.4111 306.507 18.4645 306.507 18.5178V22.1871C306.517 22.2298 306.571 22.2831 306.624 22.2831Z" fill="#00FFCE"/>
<path d="M316 0C302.741 0 292 10.7413 292 24C292 37.2587 302.741 48 316 48C329.259 48 340 37.2587 340 24C340 10.7413 329.259 0 316 0ZM320.043 16.608C320.043 16.3413 320.267 16.1173 320.533 16.1173H326.208C326.475 16.1173 326.699 16.3413 326.699 16.608V17.4293C326.699 17.696 326.475 17.92 326.208 17.92H320.533C320.267 17.92 320.043 17.696 320.043 17.4293V16.608ZM316 29.76C315.648 30.4853 315.168 31.0613 314.571 31.488C313.963 31.9253 313.216 32.1813 312.331 32.288C311.776 32.352 310.432 32.384 308.811 32.4053H303.285C302.709 32.4053 302.667 32.352 302.667 32.2987V15.7013C302.667 15.6373 302.709 15.5947 303.285 15.5947H309.792C310.592 15.5947 311.563 15.648 312.213 15.7653C312.853 15.872 313.429 16.1067 313.941 16.4587C314.453 16.8107 314.869 17.28 315.211 17.8667C315.552 18.4533 315.723 19.104 315.723 19.8293C315.723 20.6187 315.509 21.344 315.093 21.9947C314.72 22.5813 314.229 23.0293 313.632 23.36C313.547 23.4027 313.557 23.5307 313.643 23.552C314.528 23.8613 315.221 24.3413 315.723 24.992C316.267 25.7067 316.533 26.56 316.533 27.5307C316.523 28.2987 316.352 29.0347 316 29.76ZM329.333 26.752C329.333 26.816 329.28 26.88 329.205 26.88H321.003C320.928 26.88 320.875 26.944 320.875 27.008C320.917 27.9147 321.184 28.48 321.685 28.992C322.208 29.536 322.848 29.6853 323.627 29.6853C324.341 29.6853 325.44 29.472 325.76 28.2773C325.771 28.224 325.835 28.1813 325.899 28.192L329.013 28.224C329.088 28.2347 329.12 28.3093 329.109 28.3947C329.067 29.4507 328 30.8587 327.104 31.456C326.176 32.0853 325.003 32.3947 323.605 32.3947C321.387 32.3947 319.744 31.6907 318.677 30.2827C317.835 29.152 317.419 27.7333 317.419 26.016C317.419 23.968 317.973 22.3573 319.072 21.1947C320.181 20.032 321.579 19.456 323.264 19.456C325.163 19.456 326.656 20.064 327.755 21.28C328.821 22.4747 329.365 23.4773 329.333 26.752Z" fill="#00FFCE"/>
</g>
<g clip-path="url(#clip5_29_190)">
<path d="M401.047 3.2198C397.37 1.07378 393.354 0.000976562 389 0.000976562C384.645 0.000976562 380.63 1.07378 376.953 3.2198C373.276 5.36591 370.364 8.27741 368.219 11.9538C366.073 15.6311 365 19.6469 365 24.001C365 28.8551 366.322 33.2614 368.969 37.2192C371.614 41.1783 375.083 44.1049 379.375 46.0003C379.291 43.7712 379.427 41.9278 379.781 40.4696L382.875 27.407C382.354 26.3864 382.094 25.1158 382.094 23.5946C382.094 21.8239 382.541 20.3443 383.437 19.1574C384.333 17.9694 385.427 17.3754 386.718 17.3754C387.76 17.3754 388.562 17.7188 389.125 18.4071C389.687 19.0944 389.969 19.9592 389.969 21.0006C389.969 21.6468 389.849 22.4335 389.61 23.3602C389.37 24.2874 389.057 25.3601 388.672 26.5791C388.287 27.7975 388.011 28.7713 387.844 29.5008C387.552 30.7713 387.792 31.8598 388.563 32.7662C389.333 33.6726 390.354 34.1255 391.625 34.1255C393.855 34.1255 395.683 32.8863 397.11 30.407C398.537 27.9278 399.25 24.9174 399.25 21.3753C399.25 18.6465 398.371 16.4273 396.61 14.719C394.849 13.0112 392.396 12.1565 389.251 12.1565C385.729 12.1565 382.88 13.2872 380.704 15.5468C378.527 17.8076 377.438 20.5111 377.438 23.6559C377.438 25.531 377.97 27.1044 379.032 28.3752C379.386 28.792 379.501 29.2394 379.376 29.7182C379.334 29.8435 379.251 30.1559 379.126 30.6555C379.001 31.1552 378.917 31.4789 378.876 31.6243C378.709 32.2914 378.313 32.4999 377.688 32.2493C376.083 31.5827 374.865 30.4268 374.032 28.7808C373.198 27.1353 372.782 25.2292 372.782 23.0624C372.782 21.6665 373.005 20.2705 373.453 18.8747C373.901 17.4788 374.599 16.1301 375.547 14.8274C376.495 13.5264 377.63 12.3745 378.954 11.3747C380.277 10.3744 381.886 9.57308 383.782 8.96789C385.678 8.36427 387.72 8.062 389.907 8.062C392.866 8.062 395.522 8.71833 397.876 10.0305C400.23 11.3432 402.027 13.0415 403.267 15.1246C404.506 17.2078 405.126 19.4365 405.126 21.8124C405.126 24.9374 404.584 27.75 403.501 30.2502C402.418 32.7503 400.886 34.7137 398.907 36.1406C396.927 37.5674 394.677 38.2811 392.157 38.2811C390.886 38.2811 389.698 37.9844 388.594 37.3903C387.489 36.7964 386.729 36.0934 386.313 35.2807C385.375 38.9678 384.813 41.1667 384.625 41.8743C384.229 43.3539 383.416 45.0616 382.187 46.9993C384.417 47.6659 386.687 47.999 389 47.999C393.354 47.999 397.37 46.9263 401.047 44.7807C404.723 42.6346 407.635 39.7231 409.781 36.0457C411.927 32.3687 413 28.3535 413 23.9989C413 19.6444 411.927 15.6292 409.781 11.9518C407.635 8.27741 404.723 5.36591 401.047 3.2198Z" fill="#00FFCE"/>
</g>
<defs>
<clipPath id="clip0_29_190">
<rect width="48" height="48" fill="white"/>
</clipPath>
<clipPath id="clip1_29_190">
<rect width="48" height="48" fill="white" transform="translate(73)"/>
</clipPath>
<clipPath id="clip2_29_190">
<rect width="48" height="48" fill="white" transform="translate(146)"/>
</clipPath>
<clipPath id="clip3_29_190">
<rect width="48" height="48" fill="white" transform="translate(219)"/>
</clipPath>
<clipPath id="clip4_29_190">
<rect width="48" height="48" fill="white" transform="translate(292)"/>
</clipPath>
<clipPath id="clip5_29_190">
<rect width="48" height="48" fill="white" transform="translate(365)"/>
</clipPath>
</defs>
</svg>
