<svg width="180" height="51" viewBox="0 0 180 51" fill="none" xmlns="http://www.w3.org/2000/svg">
<g clip-path="url(#clip0_3_456)">
<path d="M51.4325 10.1197V40.8803C51.4325 46.4684 46.8624 51 41.227 51H10.2055C7.60303 51 5.23052 50.0352 3.42805 48.4447C2.97792 48.0491 2.56121 47.6125 2.18774 47.1408C0.817699 45.4178 0 43.2426 0 40.8803V10.1197C0 4.53164 4.57007 0 10.2055 0H41.227C46.8624 0 51.4325 4.53164 51.4325 10.1197Z" fill="#00CBA4"/>
<path d="M42.371 8.52729C42.2884 8.43959 42.1351 8.41815 42.0309 8.48441C41.571 8.87034 39.7429 10.4023 39.3164 10.7629C31.4795 9.2738 23.0017 12.6633 18.3864 18.7444C13.9658 17.3041 9.10084 21.06 3.96466 27.9929L3.95877 27.9987C3.2708 28.7219 4.0197 29.903 4.98089 29.597C5.00644 29.5892 5.03003 29.5814 5.05362 29.5717C5.63348 29.3768 11.7898 27.3146 12.177 27.184H12.179C12.7294 27.1314 13.2542 27.4335 13.4999 27.8876C12.5328 29.8114 11.8704 31.8307 11.5186 33.9708C11.4753 34.2339 11.5657 34.5009 11.7564 34.69L12.1279 35.0584C11.7662 35.417 11.2473 35.9335 10.8149 36.3623C10.6262 36.5494 10.6262 36.8496 10.8149 37.0367C10.8797 37.101 10.9466 37.1673 11.0114 37.2316L2.18774 47.1408C2.56121 47.6125 2.97792 48.0491 3.42805 48.4447L13.4409 39.6407C13.5451 39.744 13.6493 39.8473 13.7515 39.9486C13.9382 40.1338 14.2429 40.1338 14.4296 39.9467C14.8621 39.5179 15.3633 39.0189 15.7427 38.6428L16.1633 39.0599C16.3501 39.245 16.6115 39.3347 16.8709 39.2996C18.9152 39.015 20.8474 38.4615 22.703 37.637C22.8366 37.5805 22.9683 37.5201 23.1 37.4558C23.7035 37.6663 24.1064 38.3289 23.9747 38.978L23.6858 39.783L21.3545 45.6497C20.869 46.6516 22.186 47.554 22.9585 46.7529C29.6652 41.6483 34.5773 36.6196 32.1655 31.9125C38.0997 27.3906 41.4118 19.2785 40.1321 11.7258C40.539 11.2151 41.9916 9.39464 42.4201 8.85474C42.4811 8.75339 42.4555 8.60526 42.371 8.52729ZM11.5697 37.7852L11.9589 38.1711L5.67476 44.4023L11.5697 37.7852ZM6.36666 44.8175L12.5151 38.7227L12.8847 39.0891L6.36666 44.8175ZM26.3236 26.6929C25.0597 26.6929 24.0337 25.6774 24.0337 24.4241C24.0337 23.1708 25.0597 22.1534 26.3236 22.1534C27.5875 22.1534 28.6116 23.1708 28.6116 24.4241C28.6116 25.6774 27.5856 26.6929 26.3236 26.6929ZM32.48 20.5883C31.2161 20.5883 30.19 19.5709 30.19 18.3195C30.19 17.0682 31.2161 16.0488 32.48 16.0488C33.7439 16.0488 34.7679 17.0663 34.7679 18.3195C34.7679 19.5728 33.7439 20.5883 32.48 20.5883Z" fill="white"/>
<path d="M82.8451 13.3369V28.9452C82.8451 44.23 59.58 43.9065 59.58 28.9452V13.3369H65.5142V28.9452C65.5142 36.192 76.8401 36.0126 76.8401 28.9452V13.3369H82.8471H82.8451Z" fill="white"/>
<path d="M86.4285 40.2812V13.372H96.4158C109.839 13.372 109.839 33.8589 96.4158 33.8589H92.5809V40.2812H86.4285ZM92.5789 19.112V28.1539H96.4138C101.841 28.1539 101.841 19.112 96.4138 19.112H92.5789Z" fill="white"/>
<path d="M110.851 13.3369H126.916L126.989 17.5352L123.225 22.8095C126.409 24.6046 128.509 27.7602 128.363 31.3485C128.037 37.7356 121.271 41.5383 115.372 40.1389C112.876 39.4937 110.523 38.0222 109.222 35.7261L114.215 32.5686C115.988 35.3675 121.56 35.2954 122.211 31.8513C122.899 28.228 118.81 26.6492 115.842 27.9414L115.697 28.0857L114.032 26.004L120.001 19.2953H110.847V13.3388L110.851 13.3369Z" fill="white"/>
<path d="M142.441 40.2461H132.092V13.372L142.441 13.407C158.724 13.407 158.724 40.2441 142.441 40.2441V40.2461ZM142.441 19.2933H138.244V34.3618H142.441C150.655 34.3618 150.763 19.3284 142.441 19.2933Z" fill="white"/>
<path d="M161.04 10L158.435 16.9252H155.178L155.359 10H161.04Z" fill="white"/>
<path d="M159.483 32.8103L165.199 32.3444C165.344 34.6775 168.419 35.502 170.988 35.1433C174.86 34.6775 175.91 30.407 171.06 29.7249C168.926 29.3662 166.718 29.3662 164.764 28.7562C161.218 27.7875 159.119 24.9886 159.119 21.5445C159.119 10.7446 178.876 10.5302 179.672 20.8623L173.918 21.4003C173.81 19.4629 171.638 18.4591 169.431 18.4591C164.509 18.424 162.557 23.5189 168.78 24.1271C169.684 24.1992 170.553 24.1992 171.349 24.2713C176.271 24.8463 179.998 27.4288 179.998 32.2002C179.998 42.928 160.242 43.1795 159.483 32.8103Z" fill="white"/>
</g>
<defs>
<clipPath id="clip0_3_456">
<rect width="180" height="51" fill="white"/>
</clipPath>
</defs>
</svg>
