<svg width="706" height="426" viewBox="0 0 706 426" fill="none" xmlns="http://www.w3.org/2000/svg">
<path d="M703.451 2.47372L703.487 2.51256L703.525 2.54877C703.985 2.97872 704.335 3.66092 704.456 4.44143C704.571 5.18573 704.459 5.90068 704.164 6.44434C698.804 13.2991 684.611 31.3685 674.219 44.5978C669.884 50.1166 666.211 54.793 664.116 57.4617L663.708 57.9821L663.817 58.6347C686.162 192.53 628.307 336.379 524.695 416.534L523.716 417.291L524.274 418.396C545.064 459.589 534.411 502.302 503.624 546.288C472.818 590.299 422.046 635.277 363.266 680.698L363.174 680.768L363.095 680.852C350.782 693.815 329.602 679.258 337.414 662.894L337.437 662.845L337.457 662.795L378.331 558.364L378.34 558.341L378.349 558.317L383.415 543.988L383.451 543.887L383.472 543.782C385.93 531.482 378.433 518.968 367.165 514.978L366.567 514.766L365.998 515.048C363.71 516.182 361.426 517.246 359.111 518.24L359.098 518.245L359.086 518.251C326.683 532.868 292.943 542.681 257.243 547.727C253.174 548.285 249.056 546.86 246.104 543.888L238.729 536.464L237.665 535.392L236.601 536.464C233.398 539.687 229.701 543.417 225.882 547.27L225.437 547.719C221.461 551.73 217.369 555.859 213.579 559.674L213.573 559.68C210.886 562.414 206.503 562.414 203.817 559.709L198.371 554.227L197.369 553.218L196.308 554.165L21.7505 709.986C14.6089 703.516 7.96431 696.441 1.94901 688.842L155.837 513.391L156.761 512.338L155.774 511.345L152.327 507.875C149.6 505.129 149.6 500.731 152.327 497.985C156.119 494.168 160.29 489.961 164.305 485.91L164.807 485.403C168.642 481.535 172.312 477.832 175.349 474.774L176.4 473.717L175.349 472.66L168.836 466.103C165.822 463.068 164.403 458.794 165.082 454.597C171.227 416.652 182.795 380.852 199.685 346.741L200.028 346.051L199.665 345.37C195.098 336.8 185.368 331.087 175.11 332.051H174.897L174.661 332.132C170.997 333.386 137.892 344.648 106.583 355.299C79.8618 364.389 54.4488 373.034 49.7643 374.632L49.7158 374.649L49.6686 374.669C49.32 374.815 48.9591 374.937 48.5297 375.07L48.521 375.073L48.5122 375.076C33.1762 380.032 21.1283 360.865 32.1322 349.094L32.2197 349.006L32.3001 348.926L32.3673 348.833C77.3551 287.183 121.075 239.775 163.139 210.981C205.186 182.198 245.397 172.127 283.548 184.747L284.574 185.087L285.221 184.221C365.805 76.425 513.876 16.3258 650.709 42.7215L651.421 42.8587L651.97 42.3869C657.78 37.4006 678.43 19.8217 691.132 9.00885C694.718 5.95636 697.67 3.44306 699.477 1.90451C700.679 1.18639 702.506 1.45474 703.451 2.47372ZM165.562 521.198L164.429 520.058L163.37 521.266L60.0119 639.054L62.2036 641.1L172.386 530.182L173.436 529.125L172.386 528.067L165.562 521.198ZM72.2068 646.376L74.2694 648.553L188.553 546.585L189.733 545.531L188.618 544.409L182.139 537.886L181.075 536.815L180.011 537.886L72.2068 646.376ZM381.535 284.423C381.535 307.553 400.189 326.308 423.185 326.308C446.148 326.308 464.802 307.552 464.802 284.423C464.802 261.297 446.185 242.504 423.185 242.504C400.187 242.504 381.535 261.296 381.535 284.423ZM489.476 175.76C489.476 198.854 508.13 217.644 531.127 217.644C554.125 217.644 572.743 198.887 572.743 175.76C572.743 152.634 554.127 133.84 531.127 133.84C508.128 133.84 489.476 152.668 489.476 175.76Z" stroke="url(#paint0_linear_23_153)" stroke-width="3"/>
<defs>
<linearGradient id="paint0_linear_23_153" x1="353" y1="0" x2="353" y2="712" gradientUnits="userSpaceOnUse">
<stop stop-color="#00CBA4"/>
<stop offset="1" stop-color="#09A98A"/>
</linearGradient>
</defs>
</svg>
